<svg width="36" height="35" viewBox="0 0 36 35" fill="none" xmlns="http://www.w3.org/2000/svg">
<path d="M18.0002 25.0137C16.927 25.0137 15.878 24.6946 14.9857 24.0967C14.0934 23.4989 13.3979 22.6491 12.9872 21.6549C12.5766 20.6607 12.4691 19.5667 12.6785 18.5113C12.8879 17.4558 13.4046 16.4863 14.1635 15.7254C14.9223 14.9645 15.8892 14.4463 16.9417 14.2364C17.9943 14.0264 19.0852 14.1342 20.0767 14.546C21.0682 14.9579 21.9156 15.6553 22.5118 16.5501C23.108 17.4448 23.4262 18.4968 23.4261 19.5729C23.4245 21.0154 22.8523 22.3984 21.8351 23.4184C20.8179 24.4383 19.4387 25.0121 18.0002 25.0137ZM18.0002 15.5029C17.1974 15.5029 16.4127 15.7416 15.7452 16.1889C15.0778 16.6361 14.5576 17.2717 14.2504 18.0154C13.9432 18.7591 13.8628 19.5774 14.0194 20.3669C14.176 21.1564 14.5626 21.8816 15.1302 22.4508C15.6978 23.02 16.421 23.4077 17.2084 23.5647C17.9957 23.7217 18.8118 23.6411 19.5534 23.3331C20.295 23.025 20.9289 22.5034 21.3749 21.8341C21.8209 21.1648 22.0589 20.3779 22.0589 19.5729C22.0577 18.4939 21.6297 17.4594 20.8688 16.6964C20.1079 15.9334 19.0763 15.5042 18.0002 15.5029Z" fill="#C8C8C8"/>
<path d="M25.1137 35.0001H10.8867C10.7054 35.0001 10.5315 34.9279 10.4033 34.7993C10.2751 34.6708 10.2031 34.4964 10.2031 34.3146V31.4613C10.2031 29.3876 11.0246 27.3989 12.4868 25.9327C13.9491 24.4664 15.9323 23.6427 18.0002 23.6427C20.0681 23.6427 22.0513 24.4664 23.5136 25.9327C24.9758 27.3989 25.7973 29.3876 25.7973 31.4613V34.3146C25.7973 34.4964 25.7252 34.6708 25.597 34.7993C25.4688 34.9279 25.295 35.0001 25.1137 35.0001ZM11.5703 33.6292H24.4301V31.4613C24.4301 29.7512 23.7526 28.1112 22.5468 26.9021C21.341 25.6929 19.7055 25.0136 18.0002 25.0136C16.2949 25.0136 14.6594 25.6929 13.4536 26.9021C12.2477 28.1112 11.5703 29.7512 11.5703 31.4613V33.6292ZM27.7031 16.5567C26.63 16.5567 25.5809 16.2376 24.6886 15.6398C23.7963 15.042 23.1008 14.1922 22.6901 13.198C22.2794 12.2038 22.1719 11.1098 22.3813 10.0544C22.5906 8.99891 23.1074 8.02941 23.8662 7.26847C24.625 6.50753 25.5919 5.98931 26.6444 5.77936C27.6969 5.56941 28.7879 5.67715 29.7794 6.08896C30.7709 6.50077 31.6183 7.19815 32.2145 8.09291C32.8107 8.98767 33.1289 10.0396 33.1289 11.1157C33.1273 12.5582 32.5551 13.9412 31.5379 14.9612C30.5208 15.9812 29.1416 16.555 27.7031 16.5567ZM27.7031 7.04577C26.9004 7.04574 26.1156 7.28442 25.4482 7.73162C24.7807 8.17882 24.2604 8.81445 23.9532 9.55814C23.646 10.3018 23.5656 11.1202 23.7222 11.9097C23.8788 12.6992 24.2653 13.4244 24.833 13.9936C25.4006 14.5628 26.1238 14.9505 26.9111 15.1075C27.6984 15.2646 28.5145 15.184 29.2562 14.8759C29.9978 14.5679 30.6317 14.0462 31.0777 13.3769C31.5237 12.7076 31.7618 11.9207 31.7618 11.1157C31.7605 10.0367 31.3325 9.00225 30.5717 8.23925C29.8108 7.47625 28.7792 7.04704 27.7031 7.04577Z" fill="#C8C8C8"/>
<path d="M34.8164 26.5431H25.4904C25.3091 26.5431 25.1352 26.4708 25.007 26.3423C24.8788 26.2137 24.8068 26.0394 24.8068 25.8576C24.8068 25.6758 24.8788 25.5014 25.007 25.3729C25.1352 25.2443 25.3091 25.1721 25.4904 25.1721H34.1328V23.0043C34.1324 21.8782 33.8381 20.7718 33.279 19.7952C32.7198 18.8186 31.9155 18.0058 30.9459 17.4377C29.9763 16.8695 28.8752 16.5659 27.7522 16.5569C26.6293 16.5479 25.5235 16.8339 24.545 17.3864C24.3872 17.475 24.2008 17.4973 24.0266 17.4483C23.8525 17.3994 23.7048 17.2833 23.6158 17.1254C23.5269 16.9675 23.504 16.7807 23.5521 16.6059C23.6002 16.431 23.7155 16.2825 23.8726 16.1927C25.0591 15.5224 26.4001 15.1753 27.7619 15.1859C29.1238 15.1966 30.4591 15.5647 31.635 16.2536C32.811 16.9425 33.7865 17.9282 34.4646 19.1125C35.1427 20.2969 35.4996 21.6387 35.5 23.0043V25.8576C35.5 26.0394 35.428 26.2137 35.2998 26.3423C35.1716 26.4708 34.9977 26.5431 34.8164 26.5431ZM8.29705 16.5567C7.2239 16.5567 6.17485 16.2376 5.28255 15.6397C4.39026 15.0419 3.6948 14.1921 3.28412 13.1979C2.87344 12.2037 2.76599 11.1097 2.97535 10.0543C3.18472 8.99883 3.70149 8.02935 4.46032 7.26842C5.21916 6.50749 6.18597 5.98929 7.2385 5.77935C8.29103 5.56941 9.38201 5.67716 10.3735 6.08897C11.3649 6.50079 12.2124 7.19817 12.8086 8.09292C13.4048 8.98768 13.723 10.0396 13.723 11.1157C13.7213 12.5583 13.1491 13.9412 12.1319 14.9612C11.1147 15.9812 9.7356 16.555 8.29705 16.5567ZM8.29705 7.04577C7.4943 7.04577 6.70958 7.28447 6.04212 7.73168C5.37466 8.1789 4.85444 8.81454 4.54724 9.55823C4.24004 10.3019 4.15966 11.1203 4.31627 11.9098C4.47288 12.6993 4.85944 13.4245 5.42707 13.9937C5.9947 14.5629 6.7179 14.9505 7.50523 15.1075C8.29255 15.2646 9.10863 15.184 9.85028 14.8759C10.5919 14.5679 11.2258 14.0462 11.6718 13.3769C12.1178 12.7076 12.3558 11.9207 12.3558 11.1157C12.3546 10.0367 11.9266 9.0022 11.1657 8.2392C10.4048 7.4762 9.37313 7.047 8.29705 7.04577Z" fill="#C8C8C8"/>
<path d="M10.5096 26.5429H1.18359C1.00229 26.5429 0.828419 26.4707 0.70022 26.3422C0.572021 26.2136 0.5 26.0393 0.5 25.8575V23.0042C0.500355 21.6385 0.85733 20.2968 1.53541 19.1124C2.21348 17.9281 3.18902 16.9424 4.36495 16.2535C5.54088 15.5646 6.87621 15.1965 8.23807 15.1858C9.59993 15.1751 10.9408 15.5222 12.1274 16.1926C12.2852 16.282 12.4012 16.4307 12.4498 16.6058C12.4983 16.781 12.4755 16.9683 12.3863 17.1266C12.2971 17.2849 12.1489 17.4012 11.9742 17.4499C11.7995 17.4986 11.6127 17.4757 11.4549 17.3863C10.4763 16.8338 9.3706 16.5478 8.24765 16.5568C7.1247 16.5658 6.02367 16.8695 5.05409 17.4376C4.0845 18.0058 3.28015 18.8186 2.72104 19.7952C2.16193 20.7718 1.86755 21.8781 1.86719 23.0042V25.172H10.5096C10.6909 25.172 10.8648 25.2442 10.993 25.3727C11.1212 25.5013 11.1932 25.6757 11.1932 25.8575C11.1932 26.0393 11.1212 26.2136 10.993 26.3422C10.8648 26.4707 10.6909 26.5429 10.5096 26.5429ZM18 10.8819C16.9268 10.8819 15.8778 10.5628 14.9855 9.96492C14.0932 9.36706 13.3977 8.5173 12.9871 7.5231C12.5764 6.5289 12.4689 5.43491 12.6783 4.37947C12.8877 3.32403 13.4044 2.35455 14.1633 1.59362C14.9221 0.832688 15.8889 0.314488 16.9414 0.104549C17.994 -0.105391 19.085 0.00235747 20.0764 0.414169C21.0679 0.825981 21.9153 1.52336 22.5115 2.41812C23.1077 3.31288 23.426 4.36483 23.426 5.44094C23.4243 6.88346 22.8521 8.26641 21.8349 9.28643C20.8177 10.3064 19.4385 10.8802 18 10.8819ZM18 1.37097C17.1973 1.37097 16.4125 1.60967 15.7451 2.05688C15.0776 2.5041 14.5574 3.13974 14.2502 3.88343C13.943 4.62712 13.8626 5.44546 14.0192 6.23496C14.1758 7.02445 14.5624 7.74965 15.13 8.31885C15.6976 8.88805 16.4208 9.27568 17.2082 9.43272C17.9955 9.58976 18.8116 9.50916 19.5532 9.20111C20.2949 8.89307 20.9288 8.3714 21.3747 7.7021C21.8207 7.0328 22.0588 6.24591 22.0588 5.44094C22.0575 4.3619 21.6295 3.3274 20.8686 2.5644C20.1077 1.8014 19.0761 1.3722 18 1.37097Z" fill="#C8C8C8"/>
</svg>
