<svg width="40" height="25" viewBox="0 0 40 25" fill="none" xmlns="http://www.w3.org/2000/svg">
<path d="M39.6445 1.70366C39.4223 1.55717 39.1374 1.52128 38.882 1.60983L32.0883 3.92612C31.2461 4.213 30.5755 4.79132 30.2003 5.55421C30.13 5.69726 30.0838 5.84586 30.0376 5.99425C28.871 5.68334 26.703 5.03398 24.5485 3.99328C21.2928 2.42055 18.8055 3.19736 16.6722 4.72284C15.5913 4.74276 14.1014 4.86259 12.6369 4.98358C11.7027 5.06086 10.8198 5.13197 10.1038 5.17292C10.086 4.76436 9.98279 4.36307 9.80002 3.99181C9.42486 3.22885 8.75431 2.65053 7.91197 2.36371L1.11821 0.0472842C0.992436 0.0042433 0.857444 -0.00970225 0.724696 0.00663196C0.591948 0.0229662 0.465366 0.0690979 0.355704 0.141108C0.245899 0.21315 0.156237 0.308946 0.0943175 0.420379C0.0323976 0.531812 4.45923e-05 0.655597 1.7969e-07 0.781244V16.4062C-7.17212e-05 16.5088 0.0214347 16.6104 0.0632896 16.7053C0.105144 16.8001 0.166527 16.8862 0.243926 16.9588C0.321325 17.0314 0.413222 17.0889 0.514363 17.1281C0.615503 17.1674 0.723902 17.1876 0.833361 17.1875H3.26743C4.30267 17.1875 5.26579 16.7297 5.88837 15.9906C6.22001 16.227 6.61283 16.5038 7.02478 16.7938C7.99728 17.4797 9.06174 18.2281 9.52885 18.5951C12.6319 21.0304 16.3624 23.6603 17.1053 24.118C17.7995 24.5452 19.0495 25 20 25C20.3719 25 21.3086 25 21.9662 24.4789C22.6441 24.7283 23.3749 24.7162 24.0544 24.4354C24.7323 24.1554 25.2808 23.6274 25.5998 22.9858C26.2508 23.1109 26.9987 23.0193 27.6766 22.7004C28.3122 22.4021 28.7801 21.9504 29.0308 21.4225C29.6329 21.4743 30.2759 21.2905 30.8512 20.8777C31.6733 20.2886 32.0497 19.4187 31.9432 18.5604L34.057 17.464C34.6761 18.2507 35.66 18.7499 36.7326 18.7499H39.1666C39.2761 18.75 39.3845 18.7298 39.4856 18.6906C39.5868 18.6513 39.6787 18.5938 39.7561 18.5212C39.8335 18.4486 39.8949 18.3625 39.9367 18.2677C39.9786 18.1729 40.0001 18.0712 40 17.9686V2.34379C40 2.21815 39.9677 2.09437 39.9058 1.98293C39.8439 1.8715 39.7543 1.7757 39.6445 1.70366ZM4.82829 14.611C4.58579 15.2176 3.95837 15.625 3.26743 15.625H1.66664V1.89665L7.34212 3.83149C7.76369 3.9757 8.099 4.26486 8.28611 4.6463C8.47408 5.02775 8.49041 5.45504 8.3333 5.84792L4.82829 14.611ZM29.8397 19.6366C29.5573 19.8395 29.1619 19.9524 28.9861 19.7877C28.9771 19.7792 28.9632 19.78 28.954 19.772C28.938 19.7581 28.9301 19.7395 28.9129 19.7266C28.3172 19.2856 25.6479 16.7252 23.9983 15.1123C23.6801 14.8003 23.152 14.7888 22.8207 15.0887C22.4879 15.387 22.4765 15.8814 22.7955 16.1926C23.1827 16.5715 26.2908 19.6063 27.5348 20.6677C27.4419 21.0107 27.1027 21.2225 26.9304 21.3035C26.3966 21.5545 25.84 21.5126 25.6316 21.331C25.6254 21.3256 25.6162 21.3259 25.6098 21.3206C25.5997 21.3121 25.5951 21.3002 25.5843 21.2921C24.585 20.5437 22.0777 18.0458 21.5104 17.4675C21.1987 17.1493 20.6722 17.1295 20.3329 17.421C19.9943 17.7132 19.9715 18.2076 20.2832 18.525C20.3106 18.5527 22.7678 21.0376 24.1479 22.1918C24.0122 22.5572 23.7359 22.8597 23.3814 23.0064C23.1197 23.1154 22.7105 23.1713 22.2429 22.8473C21.0462 21.8961 18.6446 19.4994 18.1722 19.0254C17.8589 18.7095 17.33 18.6936 16.9946 18.9881C16.6585 19.2826 16.6407 19.777 16.9548 20.092C17.5148 20.654 19.17 22.2987 20.4283 23.4123C20.2862 23.4287 20.1432 23.4371 20 23.4375C19.4482 23.4375 18.5002 23.1072 18.0209 22.8119C17.4366 22.4518 13.7679 19.8853 10.5998 17.3981C10.1205 17.0212 9.02674 16.2498 8.02572 15.5449C7.48923 15.1673 6.99494 14.8192 6.63064 14.5565L9.7508 6.75502C10.5607 6.72184 11.6405 6.63431 12.7832 6.53983C13.4296 6.48644 14.0766 6.43436 14.6949 6.38925C13.7446 7.30382 12.3317 8.94188 12.5179 10.4773C12.6034 11.1762 13.0111 11.7583 13.6988 12.1612C15.0603 12.9599 17.5807 12.2901 18.7948 10.8901C19.5785 10.7841 20.1083 10.5964 20.6861 10.3278C21.6626 11.1884 22.972 12.2001 24.3474 13.2629C26.7416 15.1122 29.4556 17.2088 30.1734 18.3845C30.573 19.0384 30.0188 19.5084 29.8397 19.6366ZM31.2694 17.1241C30.159 15.7316 27.7522 13.8685 25.4069 12.0567C23.8436 10.849 22.3674 9.70836 21.4225 8.82265C21.1622 8.57999 20.7625 8.52506 20.4403 8.68605C19.5914 9.11254 19.209 9.28876 18.2503 9.37877C18.1243 9.39068 18.0028 9.42938 17.895 9.4919C17.7873 9.55443 17.6962 9.63916 17.6286 9.73964C16.9751 10.7116 15.1587 11.1739 14.5825 10.8367C14.2553 10.6445 14.1919 10.4491 14.174 10.3004C14.0935 9.63585 14.8112 8.48536 16.0018 7.36842C18.9503 4.60426 21.058 4.06337 23.785 5.38173C26.376 6.6341 28.9331 7.3422 30.0065 7.60968C30.0376 7.72672 30.0601 7.84493 30.1058 7.9597L33.3416 16.0494L31.2694 17.1241ZM38.3334 17.1875H36.7327C36.0417 17.1875 35.4143 16.78 35.1718 16.1735L31.6667 7.41119C31.5097 7.01752 31.5259 6.5903 31.7139 6.20878C31.9011 5.82733 32.2364 5.53817 32.6579 5.39396L38.3334 3.45912L38.3334 17.1875Z" fill="#C8C8C8"/>
</svg>
