<svg width="30" height="29" viewBox="0 0 30 29" fill="none" xmlns="http://www.w3.org/2000/svg">
<path d="M15 28.7186C7.15986 28.7186 0.78125 22.3291 0.78125 14.476C0.78125 10.2069 2.64404 6.20447 5.8918 3.50086C6.04344 3.37386 6.21864 3.27802 6.40738 3.21883C6.59612 3.15964 6.79467 3.13826 6.99168 3.15593C7.18869 3.17359 7.38028 3.22994 7.55548 3.32175C7.73068 3.41356 7.88605 3.53903 8.01268 3.69098C8.13932 3.84293 8.23474 4.01836 8.29347 4.20724C8.35221 4.39611 8.37311 4.59472 8.35498 4.79169C8.33685 4.98865 8.28004 5.18011 8.18781 5.35509C8.09557 5.53007 7.96973 5.68513 7.81748 5.8114C5.25742 7.94422 3.78906 11.1024 3.78906 14.476C3.78906 20.6707 8.81826 25.7108 15 25.7108C21.1817 25.7108 26.2109 20.6707 26.2109 14.476C26.2108 12.8204 25.8439 11.1854 25.1368 9.68849C24.4296 8.19156 23.3997 6.86982 22.121 5.81824C21.9626 5.69459 21.8306 5.54044 21.7328 5.36492C21.635 5.1894 21.5733 4.99605 21.5515 4.7963C21.5296 4.59655 21.548 4.39445 21.6056 4.20193C21.6632 4.00942 21.7587 3.83039 21.8867 3.67543C22.0146 3.52046 22.1723 3.3927 22.3504 3.2997C22.5285 3.20669 22.7234 3.15032 22.9237 3.13392C23.124 3.11752 23.3255 3.14142 23.5164 3.20421C23.7073 3.267 23.8836 3.3674 24.0351 3.49949C25.6561 4.83274 26.9616 6.5085 27.8579 8.40637C28.7542 10.3042 29.2189 12.3771 29.2188 14.476C29.2188 22.3291 22.8401 28.7186 15 28.7186Z" fill="#C8C8C8"/>
<path d="M15 15.5938C14.6011 15.5938 14.2186 15.4353 13.9366 15.1533C13.6545 14.8712 13.4961 14.4887 13.4961 14.0898V1.78516C13.4961 1.3863 13.6545 1.00377 13.9366 0.721734C14.2186 0.439697 14.6011 0.28125 15 0.28125C15.3989 0.28125 15.7814 0.439697 16.0634 0.721734C16.3455 1.00377 16.5039 1.3863 16.5039 1.78516V14.0898C16.5039 14.4887 16.3455 14.8712 16.0634 15.1533C15.7814 15.4353 15.3989 15.5938 15 15.5938Z" fill="#C8C8C8"/>
</svg>
