<svg width="40" height="35" viewBox="0 0 40 35" fill="none" xmlns="http://www.w3.org/2000/svg">
<path d="M39.5517 17.9359L30.9375 9.75981V4.37507C30.9375 3.56963 30.238 2.91674 29.375 2.91674C28.5121 2.91674 27.8125 3.56963 27.8125 4.37507V6.79371L21.1142 0.435974C20.9688 0.297918 20.7954 0.188266 20.6041 0.113413C20.4128 0.0385608 20.2075 6.78822e-06 20 8.96322e-10C19.7926 -6.78642e-06 19.5873 0.0385338 19.396 0.113374C19.2047 0.188213 19.0313 0.297854 18.8859 0.435901L0.448376 17.9359C-0.156624 18.5102 -0.148343 19.4335 0.46697 19.9982C1.0822 20.5628 2.0715 20.5551 2.67658 19.9808L3.12502 19.5553V33.5417C3.12502 34.3471 3.82455 35 4.68752 35H35.3125C36.1755 35 36.875 34.3471 36.875 33.5417V19.5553L37.3234 19.9809C37.4686 20.1191 37.642 20.2289 37.8334 20.3037C38.0247 20.3786 38.2301 20.417 38.4376 20.4167C38.8475 20.4172 39.2411 20.2668 39.533 19.9982C40.1483 19.4335 40.1567 18.5102 39.5517 17.9359ZM24.6875 32.0833H15.3125V21.875C15.3125 21.0709 16.0135 20.4167 16.875 20.4167H23.125C23.9866 20.4167 24.6875 21.0709 24.6875 21.875V32.0833ZM33.75 32.0833H27.8125V21.875C27.8125 19.4627 25.7097 17.5 23.125 17.5H16.875C14.2903 17.5 12.1875 19.4627 12.1875 21.875V32.0833H6.25002V16.5892L20 3.53835L33.75 16.5892V32.0833ZM15.3125 13.125C15.3125 13.9305 16.0121 14.5834 16.875 14.5834H23.125C23.988 14.5834 24.6875 13.9305 24.6875 13.125C24.6875 12.3196 23.988 11.6667 23.125 11.6667H16.875C16.0121 11.6667 15.3125 12.3196 15.3125 13.125Z" fill="url(#paint0_linear_1993_267)"/>
<path d="M30.4375 9.75981V9.9746L30.5933 10.1225L39.2075 18.2985C39.6019 18.6729 39.5972 19.2606 39.1949 19.6298L39.1944 19.6303C38.9983 19.8107 38.7271 19.9171 38.4382 19.9167L38.4369 19.9167C38.2914 19.9169 38.148 19.8899 38.0155 19.8381C37.883 19.7863 37.7652 19.7111 37.6681 19.6187L37.6676 19.6182L37.2193 19.1926L36.375 18.3912V19.5553V33.5417C36.375 34.039 35.9324 34.5 35.3125 34.5H4.68752C4.06764 34.5 3.62502 34.039 3.62502 33.5417V19.5553V18.3915L2.78084 19.1926L2.33241 19.6181L2.33237 19.6181C1.91824 20.0112 1.22705 20.0171 0.80506 19.6298L0.805036 19.6298C0.402764 19.2606 0.398122 18.673 0.792589 18.2985C0.792594 18.2985 0.7926 18.2985 0.792606 18.2985L19.2301 0.798555L19.2301 0.798519C19.3275 0.70606 19.4455 0.630891 19.5782 0.579006C19.7108 0.527106 19.8543 0.499995 20 0.5C20.1457 0.500005 20.2892 0.527125 20.4219 0.579032C20.5545 0.630926 20.6725 0.706102 20.7699 0.798569L20.7699 0.798628L27.4683 7.15636L28.3125 7.95765V6.79371V4.37507C28.3125 3.87771 28.7551 3.41674 29.375 3.41674C29.9949 3.41674 30.4375 3.87771 30.4375 4.37507V9.75981ZM24.6875 32.5833H25.1875V32.0833V21.875C25.1875 20.7628 24.2297 19.9167 23.125 19.9167H16.875C15.7704 19.9167 14.8125 20.7628 14.8125 21.875V32.0833V32.5833H15.3125H24.6875ZM33.75 32.5833H34.25V32.0833V16.5892V16.3744L34.0942 16.2265L20.3442 3.1757L20 2.84899L19.6558 3.1757L5.90581 16.2265L5.75002 16.3744V16.5892V32.0833V32.5833H6.25002H12.1875H12.6875V32.0833V21.875C12.6875 19.7707 14.5334 18 16.875 18H23.125C25.4666 18 27.3125 19.7707 27.3125 21.875V32.0833V32.5833H27.8125H33.75ZM16.875 14.0834C16.2551 14.0834 15.8125 13.6224 15.8125 13.125C15.8125 12.6277 16.2551 12.1667 16.875 12.1667H23.125C23.7449 12.1667 24.1875 12.6277 24.1875 13.125C24.1875 13.6224 23.7449 14.0834 23.125 14.0834H16.875Z" stroke="white" stroke-opacity="0.5"/>
<defs>
<linearGradient id="paint0_linear_1993_267" x1="1.64242e-05" y1="17.5" x2="40" y2="17.5" gradientUnits="userSpaceOnUse">
<stop stop-color="#9DD6FC"/>
<stop offset="0.006" stop-color="#FF8B00"/>
<stop offset="1" stop-color="#FF0000"/>
</linearGradient>
</defs>
</svg>
