<svg width="32" height="35" viewBox="0 0 32 35" fill="none" xmlns="http://www.w3.org/2000/svg">
<path d="M1.88379 35C1.12869 35 0.516602 34.3879 0.516602 33.6328C0.516602 26.7726 6.0978 21.1914 12.958 21.1914H15.0088C16.4127 21.1914 17.7912 21.4238 19.106 21.8822C19.819 22.1307 20.1956 22.9103 19.9469 23.6232C19.6984 24.3362 18.9188 24.7127 18.2059 24.4641C17.1811 24.1069 16.1055 23.9258 15.0088 23.9258H12.958C7.60554 23.9258 3.25098 28.2803 3.25098 33.6328C3.25098 34.3879 2.63889 35 1.88379 35ZM23.0752 9.22852C23.0752 4.13991 18.9353 0 13.8467 0C8.75808 0 4.61816 4.13991 4.61816 9.22852C4.61816 14.3171 8.75808 18.457 13.8467 18.457C18.9353 18.457 23.0752 14.3171 23.0752 9.22852ZM20.3408 9.22852C20.3408 12.8094 17.4275 15.7227 13.8467 15.7227C10.2658 15.7227 7.35254 12.8094 7.35254 9.22852C7.35254 5.64765 10.2658 2.73438 13.8467 2.73438C17.4275 2.73438 20.3408 5.64765 20.3408 9.22852ZM30.1162 26.7969H26.0146V22.6953C26.0146 21.9402 25.4026 21.3281 24.6475 21.3281C23.8924 21.3281 23.2803 21.9402 23.2803 22.6953V26.7969H19.1787C18.4236 26.7969 17.8115 27.409 17.8115 28.1641C17.8115 28.9192 18.4236 29.5312 19.1787 29.5312H23.2803V33.6328C23.2803 34.3879 23.8924 35 24.6475 35C25.4026 35 26.0146 34.3879 26.0146 33.6328V29.5312H30.1162C30.8713 29.5312 31.4834 28.9192 31.4834 28.1641C31.4834 27.409 30.8713 26.7969 30.1162 26.7969Z" fill="#C8C8C8"/>
</svg>
