<svg width="36" height="35" viewBox="0 0 36 35" fill="none" xmlns="http://www.w3.org/2000/svg">
<path d="M18 10.165C16.5493 10.165 15.1311 10.5952 13.9249 11.4012C12.7187 12.2072 11.7785 13.3527 11.2234 14.693C10.6682 16.0333 10.523 17.5081 10.806 18.931C11.089 20.3538 11.7876 21.6608 12.8134 22.6866C13.8392 23.7124 15.1462 24.411 16.569 24.694C17.9919 24.977 19.4667 24.8318 20.807 24.2766C22.1473 23.7215 23.2928 22.7813 24.0988 21.5751C24.9048 20.3689 25.335 18.9507 25.335 17.5C25.3328 15.5553 24.5593 13.6909 23.1842 12.3158C21.8091 10.9407 19.9447 10.1672 18 10.165ZM18 22.6475C16.9819 22.6475 15.9867 22.3456 15.1402 21.78C14.2937 21.2143 13.634 20.4104 13.2444 19.4698C12.8548 18.5293 12.7528 17.4943 12.9514 16.4958C13.1501 15.4973 13.6403 14.5801 14.3602 13.8602C15.0801 13.1403 15.9973 12.6501 16.9958 12.4514C17.9943 12.2528 19.0293 12.3548 19.9698 12.7444C20.9104 13.134 21.7143 13.7937 22.28 14.6402C22.8456 15.4867 23.1475 16.4819 23.1475 17.5C23.146 18.8647 22.6032 20.1731 21.6381 21.1381C20.6731 22.1032 19.3647 22.646 18 22.6475ZM34.6566 13.7909L30.7933 12.8827C30.61 12.3752 30.3966 11.8791 30.1541 11.397L32.1805 8.12472C32.3104 7.9151 32.3655 7.66777 32.3371 7.42284C32.3087 7.17792 32.1984 6.94978 32.0241 6.77544L28.5044 3.25575C28.3301 3.08142 28.102 2.97111 27.8571 2.9427C27.6122 2.9143 27.3648 2.96948 27.1552 3.09928L23.7799 5.18964C23.2919 4.96007 22.7906 4.75981 22.2787 4.58992L21.3978 0.843418C21.3414 0.603408 21.2055 0.389505 21.0122 0.236409C20.819 0.0833123 20.5797 4.51699e-06 20.3331 0L15.3556 0C15.109 4.51699e-06 14.8697 0.0833123 14.6764 0.236409C14.4832 0.389505 14.3473 0.603408 14.2909 0.843418L13.3826 4.70675C12.8752 4.89012 12.3792 5.1036 11.8973 5.34605L8.62472 3.31939C8.4151 3.18958 8.16777 3.13439 7.92284 3.1628C7.67792 3.1912 7.44978 3.30152 7.27544 3.47587L3.75575 6.99549C3.58141 7.16983 3.47108 7.39797 3.44268 7.64289C3.41427 7.88781 3.46946 8.13515 3.59928 8.34477L5.68937 11.7197C5.45976 12.2079 5.25952 12.7093 5.08972 13.2214L1.34362 14.1021C1.10356 14.1585 0.889606 14.2944 0.736468 14.4877C0.58333 14.6809 0.5 14.9203 0.5 15.1669L0.5 20.1444C0.500005 20.391 0.583312 20.6303 0.736409 20.8236C0.889505 21.0168 1.10341 21.1527 1.34342 21.2091L5.20668 22.1173C5.38992 22.6248 5.60331 23.1209 5.8457 23.603L3.81946 26.8753C3.68964 27.0849 3.63446 27.3322 3.66286 27.5772C3.69127 27.8221 3.80159 28.0502 3.97594 28.2246L7.49556 31.7442C7.6699 31.9186 7.89802 32.0289 8.14293 32.0573C8.38783 32.0857 8.63515 32.0305 8.84477 31.9007L12.2201 29.8104C12.7081 30.04 13.2094 30.2402 13.7213 30.4101L14.6025 34.1566C14.659 34.3965 14.7948 34.6104 14.988 34.7635C15.1812 34.9166 15.4204 34.9999 15.6669 35H20.6444C20.891 35 21.1303 34.9167 21.3236 34.7636C21.5168 34.6105 21.6527 34.3966 21.7091 34.1566L22.6174 30.2933C23.1249 30.11 23.621 29.8966 24.103 29.6541L27.3753 31.6806C27.5849 31.8104 27.8322 31.8656 28.0772 31.8372C28.3221 31.8088 28.5502 31.6985 28.7246 31.5241L32.2442 28.0045C32.4186 27.8302 32.5289 27.602 32.5573 27.3571C32.5857 27.1122 32.5305 26.8649 32.4007 26.6552L30.3104 23.2799C30.54 22.7919 30.7402 22.2906 30.9101 21.7787L34.6566 20.8979C34.8966 20.8414 35.1105 20.7056 35.2636 20.5123C35.4167 20.319 35.5 20.0797 35.5 19.8331V14.8556C35.5 14.609 35.4167 14.3697 35.2636 14.1764C35.1105 13.9832 34.8966 13.8473 34.6566 13.7909ZM33.3125 18.9667L29.7973 19.7931C29.6066 19.838 29.4313 19.9332 29.29 20.069C29.1487 20.2047 29.0464 20.376 28.9939 20.5648C28.7755 21.3487 28.4733 22.1068 28.0927 22.8261C28.0036 22.9947 27.9601 23.1838 27.9665 23.3745C27.973 23.5651 28.0293 23.7508 28.1297 23.913L30.0848 27.0703L27.7904 29.3647L24.7197 27.463C24.553 27.3598 24.3617 27.3032 24.1656 27.2993C23.9696 27.2954 23.7761 27.3443 23.6055 27.4408C22.8968 27.8414 22.1471 28.1646 21.3693 28.405C21.187 28.4612 21.0227 28.5642 20.8925 28.7036C20.7623 28.843 20.6709 29.0141 20.6273 29.1998L19.778 32.8125H16.5333L15.7068 29.2973C15.662 29.1066 15.5667 28.9313 15.4309 28.79C15.2952 28.6487 15.124 28.5464 14.9352 28.4939C14.1513 28.2754 13.3932 27.9733 12.674 27.5927C12.5053 27.5036 12.3163 27.4601 12.1256 27.4665C11.9349 27.473 11.7493 27.5293 11.5871 27.6297L8.42969 29.5848L6.13534 27.2904L8.03696 24.2197C8.14021 24.053 8.19675 23.8617 8.20067 23.6656C8.20459 23.4696 8.15575 23.2761 8.05925 23.1055C7.65866 22.3968 7.3354 21.6472 7.09504 20.8694C7.03877 20.6872 6.93582 20.5228 6.79641 20.3927C6.65699 20.2625 6.48596 20.171 6.30029 20.1274L2.6875 19.278V16.0333L6.20254 15.2069C6.3933 15.162 6.56851 15.0668 6.70985 14.931C6.85119 14.7953 6.95346 14.624 7.00597 14.4352C7.22433 13.6512 7.52642 12.893 7.90701 12.1736C7.99625 12.0049 8.03979 11.8157 8.0333 11.625C8.02682 11.4342 7.97053 11.2485 7.87003 11.0862L5.91516 7.92969L8.20957 5.63534L11.2805 7.5371C11.4472 7.64034 11.6386 7.69689 11.8346 7.70081C12.0307 7.70473 12.2241 7.65588 12.3948 7.55938C13.1034 7.1588 13.853 6.83554 14.6306 6.59518C14.8129 6.53888 14.9772 6.43591 15.1074 6.29647C15.2376 6.15703 15.329 5.98598 15.3726 5.80029L16.222 2.1875H19.4666L20.2932 5.70268C20.338 5.89343 20.4333 6.06864 20.569 6.20997C20.7048 6.35131 20.876 6.45358 21.0648 6.5061C21.8486 6.72457 22.6067 7.0267 23.326 7.40729C23.4947 7.49651 23.6838 7.54005 23.8746 7.53356C24.0653 7.52707 24.251 7.47079 24.4133 7.3703L27.5703 5.41522L29.8647 7.70957L27.963 10.7803C27.8598 10.947 27.8032 11.1383 27.7993 11.3344C27.7954 11.5304 27.8443 11.7239 27.9408 11.8945C28.3414 12.6032 28.6646 13.3529 28.905 14.1307C28.9612 14.3129 29.0642 14.4773 29.2036 14.6075C29.343 14.7376 29.514 14.8291 29.6997 14.8727L33.3125 15.722V18.9667Z" fill="#C8C8C8"/>
</svg>
